# Blender 5.1.2
# www.blender.org
mtllib bin_2.mtl
o Cube
v -0.080271 0.040000 -0.192229
v -0.117229 0.040000 -0.155271
v -0.122500 -0.040000 -0.157455
v -0.082455 -0.040000 -0.197500
v 0.117229 0.040000 -0.155232
v 0.080232 0.040000 -0.192229
v 0.082415 -0.040000 -0.197500
v 0.122500 -0.040000 -0.157415
v -0.117229 0.040000 0.155286
v -0.080286 0.040000 0.192229
v -0.082469 -0.040000 0.197500
v -0.122500 -0.040000 0.157469
v 0.080253 0.040000 0.192229
v 0.117229 0.040000 0.155253
v 0.122500 -0.040000 0.157436
v 0.082436 -0.040000 0.197500
v -0.122500 0.040000 -0.157455
v -0.082455 0.040000 -0.197500
v 0.082415 0.040000 -0.197500
v 0.122500 0.040000 -0.157415
v -0.082469 0.040000 0.197500
v -0.122500 0.040000 0.157469
v 0.122500 0.040000 0.157436
v 0.082436 0.040000 0.197500
v -0.117229 -0.039284 -0.155271
v -0.080271 -0.039284 -0.192229
v 0.080232 -0.039284 -0.192229
v 0.117229 -0.039284 -0.155232
v -0.080286 -0.039284 0.192229
v -0.117229 -0.039284 0.155286
v 0.117229 -0.039284 0.155253
v 0.080253 -0.039284 0.192229
vn -0.7071 -0.0000 -0.7071
vn 0.7071 -0.0000 -0.7071
vn -0.0000 -0.0000 -1.0000
vn -0.7071 -0.0000 0.7071
vn -1.0000 -0.0000 -0.0000
vn 0.7071 -0.0000 0.7071
vn -0.0000 -0.0000 1.0000
vn 1.0000 -0.0000 -0.0000
vn -0.0000 -1.0000 -0.0000
vn -0.0000 1.0000 -0.0000
vt 0.625000 0.290863
vt 0.375000 0.290863
vt 0.375000 0.224655
vt 0.625000 0.224655
vt 0.625000 0.525370
vt 0.375000 0.525370
vt 0.361366 0.472732
vt 0.638634 0.472732
vt 0.375000 0.000000
vt 0.625000 0.000000
vt 0.625000 0.025336
vt 0.375000 0.025336
vt 0.638627 0.777254
vt 0.361373 0.777254
vt 0.375000 0.724643
vt 0.625000 0.724643
vt 0.625000 0.959152
vt 0.375000 0.959152
vt 0.643261 0.771445
vt 0.628766 0.724797
vt 0.125000 0.525345
vt 0.165863 0.500000
vt 0.165848 0.750000
vt 0.125000 0.724664
vt 0.869474 0.526650
vt 0.831396 0.502887
vt 0.834138 0.500000
vt 0.875000 0.525345
vt 0.643269 0.478542
vt 0.628766 0.525216
vt 0.831411 0.747113
vt 0.869475 0.723359
vt 0.875000 0.724664
vt 0.834152 0.750000
s 0
usemtl Material
f 18/1/1 4/2/1 3/3/1 17/4/1
f 20/5/2 8/6/2 7/7/2 19/8/2
f 4/2/3 18/1/3 19/8/3 7/7/3
f 11/9/4 21/10/4 22/11/4 12/12/4
f 12/12/5 22/11/5 17/4/5 3/3/5
f 24/13/6 16/14/6 15/15/6 23/16/6
f 16/14/7 24/13/7 21/17/7 11/18/7
f 8/6/8 20/5/8 23/16/8 15/15/8
f 13/19/1 14/20/1 31/20/1 32/19/1
f 3/21/9 4/22/9 7/7/9 8/6/9 15/15/9 16/14/9 11/23/9 12/24/9
f 2/25/10 1/26/10 18/27/10 17/28/10
f 6/29/10 5/30/10 20/5/10 19/8/10
f 1/26/10 6/29/10 19/8/10 18/27/10
f 10/31/10 9/32/10 22/33/10 21/34/10
f 9/32/10 2/25/10 17/28/10 22/33/10
f 14/20/10 13/19/10 24/13/10 23/16/10
f 13/19/10 10/31/10 21/34/10 24/13/10
f 5/30/10 14/20/10 23/16/10 20/5/10
f 28/30/10 27/29/10 26/26/10 25/25/10 30/32/10 29/31/10 32/19/10 31/20/10
f 9/32/2 10/31/2 29/31/2 30/32/2
f 5/30/4 6/29/4 27/29/4 28/30/4
f 10/31/3 13/19/3 32/19/3 29/31/3
f 2/25/8 9/32/8 30/32/8 25/25/8
f 6/29/7 1/26/7 26/26/7 27/29/7
f 1/26/6 2/25/6 25/25/6 26/26/6
f 14/20/5 5/30/5 28/30/5 31/20/5
