# Blender 5.1.2
# www.blender.org
mtllib Untitled.mtl
o Cube
v 0.200000 0.050000 -0.140000
v 0.200000 -0.050000 -0.140000
v 0.200000 0.050000 0.140000
v 0.200000 -0.050000 0.140000
v -0.200000 0.050000 -0.140000
v -0.200000 -0.050000 -0.140000
v -0.200000 0.050000 0.140000
v -0.200000 -0.050000 0.140000
v -0.200000 -0.050000 -0.133854
v 0.200000 0.050000 -0.133854
v -0.200000 0.050000 -0.133854
v 0.200000 -0.050000 -0.133854
v -0.200000 -0.050000 0.134030
v 0.200000 0.050000 0.134030
v -0.200000 0.050000 0.134030
v 0.200000 -0.050000 0.134030
v 0.194419 -0.050000 -0.140000
v 0.194419 0.050000 0.140000
v 0.194419 -0.050000 0.140000
v 0.194419 0.050000 -0.140000
v 0.194419 -0.050000 -0.133854
v 0.194419 0.049059 -0.133854
v 0.194419 -0.050000 0.134030
v 0.194419 0.049059 0.134030
v -0.194934 -0.050000 -0.140000
v -0.194934 0.050000 0.140000
v -0.194934 -0.050000 -0.133854
v -0.194934 -0.050000 0.134030
v -0.194934 -0.050000 0.140000
v -0.194934 0.050000 -0.140000
v -0.194934 0.049059 -0.133854
v -0.194934 0.049059 0.134030
v -0.194934 -0.047723 -0.133854
v 0.194419 -0.047723 -0.133854
v -0.194934 -0.047723 0.134030
v 0.194419 -0.047723 0.134030
v -0.194934 0.050000 -0.133854
v 0.194419 0.050000 -0.133854
v -0.194934 0.050000 0.134030
v 0.194419 0.050000 0.134030
v -0.194934 -0.048664 -0.133854
v 0.194419 -0.048664 -0.133854
v -0.194934 -0.048664 0.134030
v 0.194419 -0.048664 0.134030
v -0.194934 0.042663 -0.133854
v 0.194419 0.042663 -0.133854
v -0.194934 0.042663 0.134030
v 0.194419 0.042663 0.134030
v -0.194934 -0.041327 -0.133854
v 0.194419 -0.041327 -0.133854
v -0.194934 -0.041327 0.134030
v 0.194419 -0.041327 0.134030
vn -0.0000 1.0000 -0.0000
vn -0.0000 -0.0000 1.0000
vn -1.0000 -0.0000 -0.0000
vn -0.0000 -1.0000 -0.0000
vn 1.0000 -0.0000 -0.0000
vn -0.0000 -0.0000 -1.0000
vt 0.871834 0.744669
vt 0.875000 0.744669
vt 0.875000 0.750000
vt 0.871834 0.750000
vt 0.375000 0.996834
vt 0.625000 0.996834
vt 0.625000 1.000000
vt 0.375000 1.000000
vt 0.375000 0.244512
vt 0.625000 0.244512
vt 0.625000 0.250000
vt 0.375000 0.250000
vt 0.371512 0.744669
vt 0.375000 0.744669
vt 0.375000 0.750000
vt 0.371512 0.750000
vt 0.625000 0.744669
vt 0.625000 0.750000
vt 0.375000 0.496512
vt 0.625000 0.496512
vt 0.625000 0.500000
vt 0.375000 0.500000
vt 0.625000 0.505488
vt 0.375000 0.505488
vt 0.371512 0.500000
vt 0.371512 0.505488
vt 0.375000 0.005331
vt 0.625000 0.005331
vt 0.871834 0.500000
vt 0.875000 0.500000
vt 0.875000 0.505488
vt 0.871834 0.505488
vt 0.375000 0.000000
vt 0.625000 0.000000
vt 0.628488 0.505488
vt 0.628488 0.744669
vt 0.128166 0.505488
vt 0.128166 0.744669
vt 0.628488 0.500000
vt 0.128166 0.500000
vt 0.375000 0.253166
vt 0.625000 0.253166
vt 0.128166 0.750000
vt 0.625000 0.753488
vt 0.375000 0.753488
vt 0.628488 0.750000
vt 0.125000 0.744669
vt 0.125000 0.750000
vt 0.125000 0.500000
vt 0.125000 0.505488
s 0
usemtl Material
f 39/1/1 15/2/1 7/3/1 26/4/1
f 29/5/2 26/6/2 7/7/2 8/8/2
f 9/9/3 11/10/3 5/11/3 6/12/3
f 23/13/4 16/14/4 4/15/4 19/16/4
f 16/14/5 14/17/5 3/18/5 4/15/5
f 17/19/6 20/20/6 1/21/6 2/22/6
f 2/22/5 1/21/5 10/23/5 12/24/5
f 17/25/4 2/22/4 12/24/4 21/26/4
f 13/27/3 15/28/3 11/10/3 9/9/3
f 30/29/1 5/30/1 11/31/1 37/32/1
f 8/33/3 7/34/3 15/28/3 13/27/3
f 12/24/5 10/23/5 14/17/5 16/14/5
f 21/26/4 12/24/4 16/14/4 23/13/4
f 37/32/1 11/31/1 15/2/1 39/1/1
f 10/23/1 38/35/1 40/36/1 14/17/1
f 27/37/4 21/26/4 23/13/4 28/38/4
f 1/21/1 20/39/1 38/35/1 10/23/1
f 25/40/4 17/25/4 21/26/4 27/37/4
f 25/41/6 30/42/6 20/20/6 17/19/6
f 28/38/4 23/13/4 19/16/4 29/43/4
f 4/15/2 3/18/2 18/44/2 19/45/2
f 14/17/1 40/36/1 18/46/1 3/18/1
f 13/47/4 28/38/4 29/43/4 8/48/4
f 6/12/6 5/11/6 30/42/6 25/41/6
f 6/49/4 25/40/4 27/37/4 9/50/4
f 9/50/4 27/37/4 28/38/4 13/47/4
f 47/1/6 48/36/6 52/36/6 51/1/6
f 20/39/1 30/29/1 37/32/1 38/35/1
f 19/45/2 18/44/2 26/6/2 29/5/2
f 40/36/1 39/1/1 26/4/1 18/46/1
f 42/35/1 41/32/1 43/1/1 44/36/1
f 46/35/2 45/32/2 49/32/2 50/35/2
f 48/36/3 46/35/3 50/35/3 52/36/3
f 45/32/5 47/1/5 51/1/5 49/32/5
f 31/32/2 22/35/2 38/35/2 37/32/2
f 24/36/6 32/1/6 39/1/6 40/36/6
f 22/35/3 24/36/3 40/36/3 38/35/3
f 32/1/5 31/32/5 37/32/5 39/1/5
f 34/35/2 33/32/2 41/32/2 42/35/2
f 35/1/6 36/36/6 44/36/6 43/1/6
f 36/36/3 34/35/3 42/35/3 44/36/3
f 33/32/5 35/1/5 43/1/5 41/32/5
f 45/32/2 46/35/2 22/35/2 31/32/2
f 48/36/6 47/1/6 32/1/6 24/36/6
f 46/35/3 48/36/3 24/36/3 22/35/3
f 47/1/5 45/32/5 31/32/5 32/1/5
f 50/35/2 49/32/2 33/32/2 34/35/2
f 51/1/6 52/36/6 36/36/6 35/1/6
f 52/36/3 50/35/3 34/35/3 36/36/3
f 49/32/5 51/1/5 35/1/5 33/32/5
